<svg width="123" height="35" viewBox="0 0 123 35" fill="none" xmlns="http://www.w3.org/2000/svg">
<path d="M16.4491 13.9056C15.6073 13.381 14.6626 12.9633 13.6381 12.6649C12.6882 12.3865 11.7254 12.1502 10.7962 11.9588C9.76905 11.7325 8.78313 11.4815 7.8693 11.2105C7.11506 10.9867 6.51012 10.6609 6.06994 10.2457C5.72757 9.92251 5.56025 9.42029 5.56025 8.71169C5.56025 8.14481 5.72499 7.65748 6.06478 7.21492C6.44319 6.72511 6.93231 6.34965 7.56556 6.06869C8.22198 5.77531 8.91701 5.63359 9.69184 5.63359C10.8914 5.63359 11.9365 5.88471 12.7963 6.37949C13.6406 6.8668 14.261 7.55551 14.6935 8.48788L15.2212 9.62166L19.2653 7.558L18.8328 6.57094C18.0528 4.7957 16.8095 3.42577 15.1414 2.50583C13.5222 1.61324 11.7126 1.1582 9.76647 1.1582C8.18077 1.1582 6.69804 1.48145 5.36203 2.12044C4.01058 2.76688 2.90884 3.66694 2.09282 4.79573C1.24849 5.96181 0.821153 7.30195 0.821153 8.77882C0.821153 10.1562 1.10945 11.3248 1.68092 12.2497C2.23695 13.1572 2.99634 13.9031 3.93334 14.4675C4.7957 14.9896 5.74815 15.4048 6.76753 15.7007C7.71484 15.9792 8.68016 16.2179 9.63519 16.4118C10.6571 16.6132 11.6302 16.8469 12.5286 17.1055C13.2622 17.3169 13.8491 17.6326 14.2713 18.0404C14.6034 18.3611 14.7707 18.8932 14.7707 19.6192C14.7707 20.3278 14.5931 20.9046 14.2276 21.3795C13.8363 21.8892 13.3163 22.2671 12.6316 22.5381C11.8979 22.829 11.0433 22.9757 10.0934 22.9757C8.76254 22.9757 7.60157 22.7072 6.63882 22.1801C5.70697 21.6704 5.04798 20.9717 4.61809 20.0493L4.10325 18.9404L0 20.922L0.442754 21.9315C1.22531 23.7142 2.52528 25.1015 4.3092 26.0563C6.03133 26.9812 7.97741 27.4486 10.0908 27.4486C11.813 27.4486 13.3909 27.1279 14.781 26.4964C16.202 25.8499 17.3526 24.9374 18.197 23.7813C19.067 22.5903 19.5072 21.1905 19.5072 19.6167C19.5072 18.2442 19.2189 17.0732 18.6526 16.1333C18.0991 15.2233 17.3578 14.4725 16.4491 13.9056Z" fill="#222631"/>
<path d="M38.7526 8.68223C37.3651 7.85677 35.7047 7.43906 33.8153 7.43906C32.33 7.43906 30.9399 7.73744 29.6888 8.32919C29.2229 8.55047 28.7827 8.8016 28.376 9.08255V0H23.709V27.1731H28.376V17.4465C28.376 16.3326 28.6051 15.3381 29.0582 14.4928C29.5061 13.6574 30.1084 13.0184 30.8961 12.5435C31.6761 12.0736 32.5359 11.8448 33.5244 11.8448C34.6107 11.8448 35.4782 12.0736 36.1707 12.5435C36.8889 13.0308 37.414 13.6574 37.7744 14.458C38.1528 15.3008 38.3458 16.2456 38.3458 17.2725V27.1755H43.0129V17.096C43.0129 15.2188 42.655 13.5505 41.9497 12.1333C41.2212 10.6738 40.1452 9.51266 38.7526 8.68223Z" fill="#222631"/>
<path d="M61.6746 8.79698C60.1095 7.89693 58.3127 7.43945 56.3332 7.43945C54.4051 7.43945 52.6238 7.89444 51.0355 8.792C49.4601 9.68459 48.191 10.8954 47.2669 12.3947C46.335 13.9039 45.8613 15.6045 45.8613 17.4494C45.8613 19.2918 46.3324 20.9974 47.2643 22.5166C48.1858 24.0233 49.4472 25.2465 51.0072 26.1515C52.5826 27.064 54.3742 27.529 56.3332 27.529C58.2895 27.529 60.0812 27.0665 61.6591 26.1515C63.2217 25.2465 64.4753 24.0208 65.3866 22.5116C66.303 20.9924 66.7664 19.2893 66.7664 17.4519C66.7664 15.6369 66.3004 13.9462 65.3866 12.427C64.4753 10.9104 63.2268 9.69205 61.6746 8.79698ZM61.3374 20.3012C60.8174 21.1689 60.1327 21.8427 59.2471 22.3649C58.3796 22.8771 57.4272 23.1232 56.3332 23.1232C55.2391 23.1232 54.2867 22.8746 53.4192 22.3624C52.5285 21.8403 51.8386 21.1615 51.3058 20.2913C50.7832 19.4384 50.5283 18.5186 50.5283 17.4818C50.5283 16.445 50.7832 15.5275 51.3058 14.6722C51.8386 13.802 52.5285 13.1257 53.4192 12.6011C54.2893 12.0889 55.2417 11.8427 56.3332 11.8427C57.4246 11.8427 58.3771 12.0914 59.2471 12.6011C60.1352 13.1232 60.8174 13.797 61.3374 14.6622C61.8496 15.52 62.0994 16.44 62.0994 17.4818C62.1019 18.5235 61.8496 19.4459 61.3374 20.3012Z" fill="#222631"/>
<path d="M85.4318 8.79698C83.8667 7.89693 82.0699 7.43945 80.0903 7.43945C78.1649 7.43945 76.3861 7.88702 74.8004 8.77215C73.2198 9.6548 71.9507 10.8606 71.0266 12.3599C70.0947 13.8716 69.6211 15.5822 69.6211 17.4494V35.0004H74.2881V25.6418C74.615 25.883 74.9574 26.1068 75.3178 26.3107C76.7722 27.1386 78.4042 27.5613 80.165 27.5613C82.1214 27.5613 83.9078 27.1038 85.4704 26.2037C87.0278 25.3087 88.2711 24.0779 89.1721 22.5513C90.0705 21.0223 90.5287 19.3067 90.5287 17.4494C90.5287 15.6344 90.0653 13.9437 89.1489 12.4221C88.2325 10.9104 86.9815 9.68957 85.4318 8.79698ZM85.092 20.3236C84.572 21.1988 83.8898 21.8776 83.0043 22.3997C82.1368 22.9094 81.1844 23.158 80.0903 23.158C78.9989 23.158 78.0438 22.9094 77.1763 22.3997C76.2882 21.8776 75.5984 21.1963 75.0655 20.3161C74.5404 19.4509 74.2855 18.5235 74.2855 17.4842C74.2855 16.4474 74.5404 15.5275 75.0629 14.6747C75.5958 13.8045 76.2857 13.1282 77.1763 12.6036C78.0464 12.0914 78.9989 11.8452 80.0903 11.8452C81.1818 11.8452 82.1342 12.0939 83.0043 12.6036C83.8924 13.1257 84.5746 13.7995 85.0946 14.6647C85.6094 15.5225 85.8591 16.445 85.8591 17.4842C85.8591 18.526 85.6068 19.4534 85.092 20.3236Z" fill="#222631"/>
<path d="M108.323 9.34407C107.991 9.10041 107.638 8.8741 107.27 8.66774C105.818 7.85222 104.189 7.43951 102.431 7.43951C100.502 7.43951 98.7315 7.88956 97.1689 8.77718C95.6115 9.66231 94.3656 10.8781 93.4647 12.3947C92.5637 13.9139 92.1055 15.6369 92.1055 17.5191C92.1055 19.3341 92.5714 21.0273 93.4852 22.5439C94.3965 24.0556 95.6502 25.2789 97.2127 26.1839C98.7881 27.0964 100.58 27.5613 102.539 27.5613C104.49 27.5613 106.279 27.1113 107.852 26.2287C109.417 25.3485 110.681 24.1327 111.608 22.621C112.539 21.0994 113.011 19.3838 113.011 17.5191V0.00292969H108.346L108.323 9.34407ZM107.582 20.3361C107.062 21.2013 106.374 21.8751 105.478 22.3948C104.595 22.907 103.635 23.158 102.541 23.158C101.45 23.158 100.495 22.9095 99.6273 22.3973C98.7418 21.8751 98.057 21.2013 97.537 20.3361C97.0222 19.4783 96.7725 18.5584 96.7725 17.5166C96.7725 16.4748 97.0247 15.545 97.5396 14.6772C98.0596 13.802 98.7418 13.1232 99.6273 12.6011C100.497 12.0889 101.45 11.8428 102.541 11.8428C103.635 11.8428 104.595 12.0914 105.478 12.6061C106.372 13.1257 107.059 13.8045 107.579 14.6772C108.094 15.5474 108.346 16.4773 108.346 17.5191C108.344 18.5584 108.094 19.4808 107.582 20.3361Z" fill="#222631"/>
<path d="M122.528 7.82422H117.861V27.1753H122.528V7.82422Z" fill="#222631"/>
<path d="M122.625 1.8697C122.38 1.45946 122.056 1.1263 121.657 0.882637C120.838 0.385372 119.693 0.353025 118.779 0.857749C118.336 1.10141 117.984 1.44205 117.731 1.8697C117.482 2.29238 117.355 2.76475 117.355 3.27445C117.355 3.78166 117.482 4.2541 117.731 4.67677C117.984 5.10442 118.339 5.445 118.779 5.68866C119.217 5.92984 119.693 6.05414 120.195 6.05414C120.741 6.05414 121.23 5.92241 121.66 5.66383C122.056 5.42017 122.38 5.0895 122.625 4.67926C122.875 4.25658 123.001 3.78415 123.001 3.27694C123.001 2.76476 122.875 2.29238 122.625 1.8697Z" fill="#222631"/>
</svg>
