<svg width="17" height="16" viewBox="0 0 17 16" fill="none" xmlns="http://www.w3.org/2000/svg">
<path d="M12.5883 8.50097C12.5883 7.14417 13.3131 5.98417 14.3419 5.49617C14.0555 5.12177 13.6715 4.76977 13.1547 4.40177C12.4859 3.92497 11.0043 3.87057 10.0331 4.11857C9.29553 4.30577 8.66673 4.66737 8.33073 4.68337C8.02673 4.69937 7.37393 4.29297 6.62833 4.11857C5.72913 3.90737 4.74833 4.02577 4.07473 4.40177C2.11633 5.49617 1.80273 6.61457 1.80273 8.92497C1.80273 11.5874 2.76753 13.845 4.92433 15.429C5.39793 15.7762 6.24913 15.981 6.91153 15.7122C7.48113 15.4802 7.78513 15.197 8.33073 15.1474C9.12753 15.0754 9.49873 15.3426 9.88273 15.581C10.2315 15.797 11.0363 15.9714 11.4523 15.7138C12.9099 14.8114 14.0571 13.3362 14.6635 11.6338C13.4667 11.2498 12.5883 9.99377 12.5883 8.50097ZM10.8843 2.42257C11.4635 1.51377 11.4651 0.155369 11.4523 0.160169C11.2123 0.240169 10.4027 0.051369 9.18193 1.00817C8.75633 1.34257 8.23313 2.16497 8.04593 2.70417C7.90353 3.11377 7.76433 4.11697 7.76113 4.11857C7.74673 4.12017 8.69713 4.06737 9.18033 3.83537C9.67633 3.59857 10.5099 3.01137 10.8843 2.42257Z" fill="white"/>
</svg>
