<svg width="16" height="16" viewBox="0 0 16 16" fill="none" xmlns="http://www.w3.org/2000/svg">
<path d="M3.67368 5.41401H12.3281V11.6924C12.3281 12.2668 11.8657 12.7308 11.3009 12.7308H10.5921V14.87C10.5921 15.4076 10.1601 15.8396 9.62248 15.8396C9.08488 15.8396 8.64968 15.406 8.64968 14.87V12.7292H7.35048V14.8684C7.35048 15.4044 6.91528 15.838 6.37768 15.838C5.85128 15.838 5.41608 15.4044 5.41608 14.8684L5.40808 12.7292H4.71048C4.13608 12.7292 3.67368 12.2668 3.67368 11.6908V5.41401ZM2.33448 5.23481C1.79848 5.23481 1.36328 5.67001 1.36328 6.19641V10.2508C1.36328 10.7884 1.79848 11.2204 2.33448 11.2204C2.87048 11.2204 3.29608 10.7868 3.29608 10.2508V6.19641C3.29608 5.66841 2.86408 5.23481 2.33448 5.23481ZM12.3553 5.07481H3.63528C3.63528 3.57561 4.53128 2.27481 5.86088 1.59641L5.19048 0.362811C5.15208 0.295611 5.17128 0.210811 5.23688 0.174011C5.30248 0.145211 5.38888 0.164411 5.42568 0.231611L6.10408 1.47641C6.68008 1.22041 7.32168 1.07961 8.00008 1.07961C8.67848 1.07961 9.31848 1.22041 9.89608 1.47481L10.5745 0.230011C10.6129 0.162811 10.6977 0.145211 10.7633 0.172411C10.8305 0.210811 10.8481 0.295611 10.8097 0.361211L10.1393 1.59481C11.4593 2.27321 12.3553 3.57561 12.3553 5.07481ZM6.37768 3.13241C6.37768 2.93401 6.21768 2.76441 6.01128 2.76441C5.81128 2.76441 5.65288 2.93401 5.65288 3.13241C5.65288 3.32921 5.81288 3.49881 6.01128 3.49881C6.21768 3.50041 6.37768 3.33081 6.37768 3.13241ZM10.3473 3.13241C10.3473 2.93401 10.1873 2.76441 9.98888 2.76441C9.78088 2.76441 9.62248 2.93401 9.62248 3.13241C9.62248 3.32921 9.78248 3.49881 9.98888 3.49881C10.1873 3.50041 10.3473 3.33081 10.3473 3.13241ZM13.6657 5.23481C13.1377 5.23481 12.7041 5.65881 12.7041 6.19641V10.2508C12.7041 10.7884 13.1361 11.2204 13.6657 11.2204C14.2017 11.2204 14.6369 10.7868 14.6369 10.2508V6.19641C14.6369 5.65881 14.2033 5.23481 13.6657 5.23481Z" fill="#333333"/>
</svg>
