<svg width="17" height="16" viewBox="0 0 17 16" fill="none" xmlns="http://www.w3.org/2000/svg">
<path d="M3.9061 5.41401H12.5605V11.6924C12.5605 12.2668 12.0981 12.7308 11.5333 12.7308H10.8245V14.87C10.8245 15.4076 10.3925 15.8396 9.8549 15.8396C9.3173 15.8396 8.8821 15.406 8.8821 14.87V12.7292H7.5829V14.8684C7.5829 15.4044 7.1477 15.838 6.6101 15.838C6.0837 15.838 5.6485 15.4044 5.6485 14.8684L5.6405 12.7292H4.9429C4.3685 12.7292 3.9061 12.2668 3.9061 11.6908V5.41401ZM2.5669 5.23481C2.0309 5.23481 1.5957 5.67001 1.5957 6.19641V10.2508C1.5957 10.7884 2.0309 11.2204 2.5669 11.2204C3.1029 11.2204 3.5285 10.7868 3.5285 10.2508V6.19641C3.5285 5.66841 3.0965 5.23481 2.5669 5.23481ZM12.5877 5.07481H3.8677C3.8677 3.57561 4.7637 2.27481 6.0933 1.59641L5.4229 0.362811C5.3845 0.295611 5.4037 0.210811 5.4693 0.174011C5.5349 0.145211 5.6213 0.164411 5.6581 0.231611L6.3365 1.47641C6.9125 1.22041 7.5541 1.07961 8.2325 1.07961C8.9109 1.07961 9.5509 1.22041 10.1285 1.47481L10.8069 0.230011C10.8453 0.162811 10.9301 0.145211 10.9957 0.172411C11.0629 0.210811 11.0805 0.295611 11.0421 0.361211L10.3717 1.59481C11.6917 2.27321 12.5877 3.57561 12.5877 5.07481ZM6.6101 3.13241C6.6101 2.93401 6.4501 2.76441 6.2437 2.76441C6.0437 2.76441 5.8853 2.93401 5.8853 3.13241C5.8853 3.32921 6.0453 3.49881 6.2437 3.49881C6.4501 3.50041 6.6101 3.33081 6.6101 3.13241ZM10.5797 3.13241C10.5797 2.93401 10.4197 2.76441 10.2213 2.76441C10.0133 2.76441 9.8549 2.93401 9.8549 3.13241C9.8549 3.32921 10.0149 3.49881 10.2213 3.49881C10.4197 3.50041 10.5797 3.33081 10.5797 3.13241ZM13.8981 5.23481C13.3701 5.23481 12.9365 5.65881 12.9365 6.19641V10.2508C12.9365 10.7884 13.3685 11.2204 13.8981 11.2204C14.4341 11.2204 14.8693 10.7868 14.8693 10.2508V6.19641C14.8693 5.65881 14.4357 5.23481 13.8981 5.23481Z" fill="white"/>
</svg>
