<svg width="16" height="16" viewBox="0 0 16 16" fill="none" xmlns="http://www.w3.org/2000/svg">
<path d="M12.3559 8.50097C12.3559 7.14417 13.0807 5.98417 14.1095 5.49617C13.8231 5.12177 13.4391 4.76977 12.9223 4.40177C12.2535 3.92497 10.7719 3.87057 9.80071 4.11857C9.06311 4.30577 8.43431 4.66737 8.09831 4.68337C7.79431 4.69937 7.14151 4.29297 6.39591 4.11857C5.49671 3.90737 4.51591 4.02577 3.84231 4.40177C1.88391 5.49617 1.57031 6.61457 1.57031 8.92497C1.57031 11.5874 2.53511 13.845 4.69191 15.429C5.16551 15.7762 6.01671 15.981 6.67911 15.7122C7.24871 15.4802 7.55271 15.197 8.09831 15.1474C8.89511 15.0754 9.26631 15.3426 9.65031 15.581C9.99911 15.797 10.8039 15.9714 11.2199 15.7138C12.6775 14.8114 13.8247 13.3362 14.4311 11.6338C13.2343 11.2498 12.3559 9.99377 12.3559 8.50097ZM10.6519 2.42257C11.2311 1.51377 11.2327 0.155369 11.2199 0.160169C10.9799 0.240169 10.1703 0.051369 8.94951 1.00817C8.52391 1.34257 8.00071 2.16497 7.81351 2.70417C7.67111 3.11377 7.53191 4.11697 7.52871 4.11857C7.51431 4.12017 8.46471 4.06737 8.94791 3.83537C9.44391 3.59857 10.2775 3.01137 10.6519 2.42257Z" fill="#333333"/>
</svg>
