<svg width="23" height="15" viewBox="0 0 23 15" fill="none" xmlns="http://www.w3.org/2000/svg">
<g clip-path="url(#clip0_3823_40397)">
<path fill-rule="evenodd" clip-rule="evenodd" d="M2.52151 2.17437H21.3911C21.6678 2.17437 21.9332 2.07536 22.1289 1.89911C22.3246 1.72286 22.4345 1.48381 22.4345 1.23455C22.4345 0.985297 22.3246 0.746245 22.1289 0.569996C21.9332 0.393746 21.6678 0.294735 21.3911 0.294735H2.52151C2.24476 0.294735 1.97934 0.393746 1.78365 0.569996C1.58796 0.746245 1.47803 0.985297 1.47803 1.23455C1.47803 1.48381 1.58796 1.72286 1.78365 1.89911C1.97934 2.07536 2.24476 2.17437 2.52151 2.17437ZM21.3911 6.56018H6.5215C6.24476 6.56018 5.97934 6.65919 5.78365 6.83544C5.58796 7.01169 5.47803 7.25075 5.47803 7.5C5.47803 7.74926 5.58796 7.98831 5.78365 8.16456C5.97934 8.34081 6.24476 8.43982 6.5215 8.43982H21.3911C21.6678 8.43982 21.9332 8.34081 22.1289 8.16456C22.3246 7.98831 22.4345 7.74926 22.4345 7.5C22.4345 7.25075 22.3246 7.01169 22.1289 6.83544C21.9332 6.65919 21.6678 6.56018 21.3911 6.56018ZM21.3911 12.8256H2.52151C2.24476 12.8256 1.97934 12.9246 1.78365 13.1009C1.58796 13.2771 1.47803 13.5162 1.47803 13.7654C1.47803 14.0147 1.58796 14.2538 1.78365 14.43C1.97934 14.6063 2.24476 14.7053 2.52151 14.7053H21.3911C21.6678 14.7053 21.9332 14.6063 22.1289 14.43C22.3246 14.2538 22.4345 14.0147 22.4345 13.7654C22.4345 13.5162 22.3246 13.2771 22.1289 13.1009C21.9332 12.9246 21.6678 12.8256 21.3911 12.8256Z" fill="#222631"/>
</g>
<defs>
<clipPath id="clip0_3823_40397">
<rect width="22.9565" height="14.4105" fill="white" transform="translate(0.043457 0.294735)"/>
</clipPath>
</defs>
</svg>
